<svg width="30" height="24" viewBox="0 0 30 24" fill="none" xmlns="http://www.w3.org/2000/svg">
<path d="M2.35547 0H27.6445C28.9453 0 30 1.05469 30 2.35547C30 3.65625 28.9453 4.71094 27.6445 4.71094H2.35547C1.05469 4.71094 0 3.65625 0 2.35547C0 1.05469 1.05469 0 2.35547 0ZM2.35547 9.31055H27.6445C28.9453 9.31055 30 10.3652 30 11.666C30 12.9668 28.9453 14.0215 27.6445 14.0215H2.35547C1.05469 14.0215 0 12.9668 0 11.666C0 10.3652 1.05469 9.31055 2.35547 9.31055ZM2.35547 18.6211H27.6445C28.9453 18.6211 30 19.6758 30 20.9766C30 22.2773 28.9453 23.332 27.6445 23.332H2.35547C1.05469 23.332 0 22.2773 0 20.9766C0 19.6758 1.05469 18.6211 2.35547 18.6211Z" fill="#09A494"/>
</svg>
